<?xml version="1.0" encoding="UTF-8"?>
<svg width="90px" height="75px" viewBox="0 0 90 75" version="1.1" xmlns="http://www.w3.org/2000/svg" xmlns:xlink="http://www.w3.org/1999/xlink">
    <!-- Generator: Sketch 43.2 (39069) - http://www.bohemiancoding.com/sketch -->
    <title>Logo</title>
    <desc>Created with Sketch.</desc>
    <defs></defs>
    <g id="Page-1" stroke="none" stroke-width="1" fill="none" fill-rule="evenodd">
        <g id="Index" transform="translate(-111.000000, -31.000000)">
            <g id="Logo" transform="translate(111.000000, 31.000000)">
                <path d="M52,75 C70,75 78,67 84,59 C90,51 90,39.8977019 90,32.5 C90,14.5507456 75.4492544,0 57.5,0 C41.984116,0 29.0077344,10.8729019 25.7745003,25.4150605 C25.2674292,27.6957206 20.7525536,28.2474464 20,29 C19,30 15,32 10,32 C6.76890112,32 4,30 2,30 C0.405734485,30 2.93960556e-15,31.2068564 1.42108547e-14,32 C7.09929174e-14,36 3.46673344,41.4667334 6,44 C10.2041238,48.2041238 16,50 18,51 C20,52 21,53 21,54 C21,56 19,56 19,56 L11,57 C11,57 9.32518141,57.6446391 9,59 C8.81116672,59.7870599 8.73234283,61.2394057 10,62 C15,65 21.7248409,66.7480647 25,67 C31.9676938,67.5359764 38,67 44,65 C45.6811433,64.4396189 48,63 49,64 C49.7296383,64.7296383 50,66 49,67 C48,68 45,69 46,72 C47,75 52,75 52,75 Z" id="Oval" fill="#990A3E"></path>
                <path d="M75,35 C76.224595,35.0240576 77.0902716,34.9716105 78,35 C82,35.1248263 82.998628,32.4256203 83,30.0020844 C83.001372,27.5785485 82,25 78,25 L75,25 L75,35 Z" id="Path-5" fill="#F7D759"></path>
                <path d="M40.0627441,19 L40,34.8747559 C40,34.8747559 40,37.5058178 40,39 C40,49 47.8617533,55.3555152 55.0627441,55 C63.4258485,54.5871109 70.0627441,49 70.0627441,39 C70.0627441,29.2244416 70.0750265,23.6677068 70.0627441,19 L40.0627441,19 Z" id="Path-6" fill="#F7D759"></path>
                <path d="M40,31 C48.6466258,31 55,36 55.0627441,46 C55.0815665,48.999861 55.0627441,55 55.0627441,55 C50,55 47,53 44,50 C41,47 40,43 40,39 C40,35 40,31 40,31 Z" id="Path-7" fill="#F4A41A"></path>
                <circle id="Oval-2" fill="#990A3E" cx="47.5" cy="38.5" r="2.5"></circle>
                <circle id="Oval-2-Copy" fill="#990A3E" cx="62.5" cy="38.5" r="2.5"></circle>
                <path d="M77.9346882,6.62646221 C70.0596882,1.62646221 62.0596882,-1.37353779 50.0596882,0.626462206 C35.5608375,3.04293732 34.0596882,11.6264622 27.0596882,16.6264622 C20.0596882,21.6264622 14.0821473,17.5366258 13.0596882,21.6264622 C12.3574728,24.4353239 17.9818053,28.3183336 23.0596882,30.6264622 C34.0596882,35.6264622 47.3263038,35.1687082 57.0596882,30.6264622 C72.0596882,23.6264622 77.9346882,6.62646221 77.9346882,6.62646221 Z" id="Path-3" fill="#B70C48"></path>
            </g>
        </g>
    </g>
</svg>